REM DIRINDEX 1\5,1\2\6,1\2\7,1\3\8,1\3\9,1\4\10,1\4\11,1\4\12
REM DIRNAME cjc026,folder01,folder02,folder03,folder04,folder05,folder06,folder07,folder08,folder09,folder10,folder11
TITLE ""
FILE "JE_DB3000_5th_5C_14.mp3" MP3
  TRACK 01 AUDIO
    TITLE "0:"
    INDEX 01 00:00:00
  TRACK 02 AUDIO
    TITLE "6:cjc026_02449"
    INDEX 01 00:00:08
  TRACK 03 AUDIO
    TITLE "0:"
    INDEX 01 00:01:35
  TRACK 04 AUDIO
    TITLE "7:cjc026_02450"
    INDEX 01 00:01:70
  TRACK 05 AUDIO
    TITLE "0:"
    INDEX 01 00:03:20
  TRACK 06 AUDIO
    TITLE "6:cjc026_02451"
    INDEX 01 00:03:55
  TRACK 07 AUDIO
    TITLE "0:"
    INDEX 01 00:05:13
  TRACK 08 AUDIO
    TITLE "7:cjc026_02452"
    INDEX 01 00:05:48
  TRACK 09 AUDIO
    TITLE "0:"
    INDEX 01 00:07:06
  TRACK 10 AUDIO
    TITLE "6:cjc026_02453"
    INDEX 01 00:07:42
  TRACK 11 AUDIO
    TITLE "0:"
    INDEX 01 00:09:13
  TRACK 12 AUDIO
    TITLE "7:cjc026_02454"
    INDEX 01 00:09:45
  TRACK 13 AUDIO
    TITLE "0:"
    INDEX 01 00:11:14
  TRACK 14 AUDIO
    TITLE "6:cjc026_02455"
    INDEX 01 00:11:49
  TRACK 15 AUDIO
    TITLE "0:"
    INDEX 01 00:12:69
  TRACK 16 AUDIO
    TITLE "7:cjc026_02456"
    INDEX 01 00:13:29
  TRACK 17 AUDIO
    TITLE "0:"
    INDEX 01 00:14:51
  TRACK 18 AUDIO
    TITLE "6:cjc026_02457"
    INDEX 01 00:15:11
  TRACK 19 AUDIO
    TITLE "0:"
    INDEX 01 00:16:25
  TRACK 20 AUDIO
    TITLE "7:cjc026_02458"
    INDEX 01 00:16:63
  TRACK 21 AUDIO
    TITLE "0:"
    INDEX 01 00:18:00
  TRACK 22 AUDIO
    TITLE "6:cjc026_02459"
    INDEX 01 00:18:37
  TRACK 23 AUDIO
    TITLE "0:"
    INDEX 01 00:19:70
  TRACK 24 AUDIO
    TITLE "7:cjc026_02460"
    INDEX 01 00:20:33
  TRACK 25 AUDIO
    TITLE "0:"
    INDEX 01 00:21:61
  TRACK 26 AUDIO
    TITLE "6:cjc026_02461"
    INDEX 01 00:22:21
  TRACK 27 AUDIO
    TITLE "0:"
    INDEX 01 00:23:73
  TRACK 28 AUDIO
    TITLE "7:cjc026_02462"
    INDEX 01 00:24:30
  TRACK 29 AUDIO
    TITLE "0:"
    INDEX 01 00:25:60
  TRACK 30 AUDIO
    TITLE "6:cjc026_02463"
    INDEX 01 00:26:31
  TRACK 31 AUDIO
    TITLE "0:"
    INDEX 01 00:27:70
  TRACK 32 AUDIO
    TITLE "7:cjc026_02464"
    INDEX 01 00:28:33
  TRACK 33 AUDIO
    TITLE "0:"
    INDEX 01 00:29:41
  TRACK 34 AUDIO
    TITLE "6:cjc026_02465"
    INDEX 01 00:30:07
  TRACK 35 AUDIO
    TITLE "0:"
    INDEX 01 00:31:42
  TRACK 36 AUDIO
    TITLE "7:cjc026_02466"
    INDEX 01 00:32:05
  TRACK 37 AUDIO
    TITLE "0:"
    INDEX 01 00:33:14
  TRACK 38 AUDIO
    TITLE "6:cjc026_02467"
    INDEX 01 00:33:52
  TRACK 39 AUDIO
    TITLE "0:"
    INDEX 01 00:35:04
  TRACK 40 AUDIO
    TITLE "7:cjc026_02468"
    INDEX 01 00:35:39
  TRACK 41 AUDIO
    TITLE "0:"
    INDEX 01 00:36:64
  TRACK 42 AUDIO
    TITLE "6:cjc026_02469"
    INDEX 01 00:37:24
  TRACK 43 AUDIO
    TITLE "0:"
    INDEX 01 00:38:39
  TRACK 44 AUDIO
    TITLE "7:cjc026_02470"
    INDEX 01 00:38:74
  TRACK 45 AUDIO
    TITLE "0:"
    INDEX 01 00:40:15
  TRACK 46 AUDIO
    TITLE "6:cjc026_02471"
    INDEX 01 00:40:53
  TRACK 47 AUDIO
    TITLE "0:"
    INDEX 01 00:42:19
  TRACK 48 AUDIO
    TITLE "7:cjc026_02472"
    INDEX 01 00:42:54
  TRACK 49 AUDIO
    TITLE "0:"
    INDEX 01 00:44:12
  TRACK 50 AUDIO
    TITLE "6:cjc026_02473"
    INDEX 01 00:44:48
  TRACK 51 AUDIO
    TITLE "0:"
    INDEX 01 00:46:22
  TRACK 52 AUDIO
    TITLE "7:cjc026_02474"
    INDEX 01 00:46:54
  TRACK 53 AUDIO
    TITLE "0:"
    INDEX 01 00:48:12
  TRACK 54 AUDIO
    TITLE "6:cjc026_02475"
    INDEX 01 00:48:45
  TRACK 55 AUDIO
    TITLE "0:"
    INDEX 01 00:50:05
  TRACK 56 AUDIO
    TITLE "7:cjc026_02476"
    INDEX 01 00:50:38
  TRACK 57 AUDIO
    TITLE "0:"
    INDEX 01 00:52:04
  TRACK 58 AUDIO
    TITLE "6:cjc026_02477"
    INDEX 01 00:52:36
  TRACK 59 AUDIO
    TITLE "0:"
    INDEX 01 00:53:69
  TRACK 60 AUDIO
    TITLE "7:cjc026_02478"
    INDEX 01 00:54:29
  TRACK 61 AUDIO
    TITLE "0:"
    INDEX 01 00:55:43
